<?xml version="1.0" encoding="UTF-8"?>
<svg version="1.1" xmlns="http://www.w3.org/2000/svg" width="256" height="256">
<path d="M0 0 C22.89677705 19.91308163 39.33051332 48.76817147 41.96746826 79.33526611 C42.19552568 83.44538973 42.22168369 87.54885277 42.18408203 91.66430664 C42.16799754 93.74627396 42.18404511 95.82629374 42.203125 97.90820312 C42.22411708 110.72645905 40.30847022 123.22450485 36.10546875 135.375 C35.85055664 136.11975586 35.59564453 136.86451172 35.33300781 137.63183594 C24.27853868 168.65566866 -0.07179241 193.4648811 -29.26953125 208 C-44.08209665 214.81456382 -59.9783958 218.39506759 -76.20703125 219.3125 C-77.76744141 219.40144531 -77.76744141 219.40144531 -79.359375 219.4921875 C-113.95991388 220.34652179 -145.51462724 207.05985006 -170.54272461 183.43261719 C-194.16474977 160.39397128 -206.51504405 129.25953953 -207.55883789 96.50463867 C-207.89309196 64.91235121 -197.29699893 36.4974611 -177.20703125 12.3125 C-176.65273437 11.61769531 -176.0984375 10.92289063 -175.52734375 10.20703125 C-156.97232938 -12.51032419 -126.37174145 -26.76286348 -97.70703125 -29.875 C-61.37879003 -33.43603757 -27.89789564 -23.59463445 0 0 Z " fill="#010101" transform="translate(210.20703125,33.6875)"/>
<path d="M0 0 C9.02389461 6.81102874 13.93052155 15.28375214 17.453125 25.8515625 C18.74611826 37.95730638 18.29540534 49.43568476 11.453125 59.8515625 C3.11079804 69.64086703 -6.08044887 78.6760195 -15.13867188 87.79345703 C-16.99595447 89.66735742 -18.84784718 91.54661512 -20.69433594 93.43115234 C-23.3907752 96.18263075 -26.10354988 98.91704117 -28.8203125 101.6484375 C-29.63212982 102.48292419 -30.44394714 103.31741089 -31.28036499 104.17718506 C-40.46601804 113.32974023 -50.62710708 118.95004875 -63.73608398 119.23217773 C-77.85748908 119.19483241 -87.51834987 114.92431083 -98.171875 105.5390625 C-100.30246593 101.37472569 -100.30696904 97.42717808 -99.546875 92.8515625 C-97.49579912 89.45667828 -95.84202879 88.04833169 -92.546875 85.8515625 C-88.20913139 84.83038536 -84.72024502 85.19069892 -80.828125 87.3828125 C-78.96560669 88.65936999 -77.10363201 89.93672099 -75.2421875 91.21484375 C-70.67751264 93.98672602 -66.72871875 94.37011317 -61.51644897 93.5206604 C-54.02012645 91.45484629 -49.50225349 86.67554039 -44.1484375 81.25 C-43.1828679 80.2884818 -42.21640996 79.32785495 -41.24911499 78.36807251 C-39.23414823 76.36190632 -37.23031625 74.34540996 -35.23388672 72.32080078 C-32.68880393 69.74153396 -30.11771837 67.19015599 -27.53762245 64.6459713 C-25.53967138 62.66982251 -23.55637893 60.67945373 -21.57706833 58.68465042 C-20.18091485 57.28261419 -18.77278658 55.89253487 -17.3644104 54.5027771 C-11.88317207 48.89981269 -7.78786784 43.85749935 -7.46353149 35.77450562 C-7.9206462 29.35567394 -10.44911371 24.70539806 -15.234375 20.4765625 C-20.54400459 17.87183855 -25.71740012 17.12199054 -31.5234375 18.51953125 C-39.76393448 21.41479507 -45.59930124 29.71410351 -51.3293457 35.98339844 C-52.99833005 37.7973566 -54.69420661 39.58264945 -56.39453125 41.3671875 C-56.89372574 41.93165588 -57.39292023 42.49612427 -57.90724182 43.07769775 C-59.95010348 45.20398215 -61.59892065 46.79191462 -64.62461853 46.9822998 C-66.77929688 46.72558594 -66.77929688 46.72558594 -70.546875 45.8515625 C-71.34996094 45.6865625 -72.15304688 45.5215625 -72.98046875 45.3515625 C-73.64175781 45.1865625 -74.30304688 45.0215625 -74.984375 44.8515625 C-79.48930801 43.79988824 -83.94349572 43.28997957 -88.546875 42.8515625 C-89.24412537 40.59436035 -89.24412537 40.59436035 -89.546875 37.8515625 C-88.31629944 35.87927246 -88.31629944 35.87927246 -86.39086914 33.96679688 C-85.31833641 32.88041931 -85.31833641 32.88041931 -84.22413635 31.77209473 C-83.43474167 31.00425659 -82.64534698 30.23641846 -81.83203125 29.4453125 C-80.62648842 28.24183167 -80.62648842 28.24183167 -79.39659119 27.01403809 C-77.68934566 25.31586646 -75.97480438 23.6250033 -74.25366211 21.94091797 C-71.63554201 19.37718593 -69.04185477 16.7906422 -66.45117188 14.19921875 C-64.7878598 12.55066811 -63.12318793 10.90348809 -61.45703125 9.2578125 C-60.68585464 8.48997437 -59.91467804 7.72213623 -59.12013245 6.93103027 C-42.61950605 -9.14476644 -19.95814291 -12.7405755 0 0 Z " fill="#FCFCFC" transform="translate(203.546875,42.1484375)"/>
<path d="M0 0 C5.59835603 3.20784922 12.02160342 7.04320685 15 13 C15.34444547 18.25279338 15.57741751 21.82634624 12 26 C7.62423085 28.88402967 4.19900136 29.64987517 -1 29 C-3.9375 27.25 -3.9375 27.25 -7 25 C-12.03313472 21.94711501 -15.97961838 20.15503416 -22 21 C-30.13274212 23.44159655 -35.33609839 28.61962046 -41.1796875 34.55078125 C-42.11426788 35.48294968 -43.04884827 36.4151181 -44.01174927 37.37553406 C-45.97782844 39.33877208 -47.93493808 41.31040429 -49.88574219 43.28881836 C-52.37527252 45.81249933 -54.88442979 48.31553083 -57.40040398 50.81281757 C-59.81615741 53.21541322 -62.21602854 55.63359825 -64.6171875 58.05078125 C-65.51404266 58.94267654 -66.41089783 59.83457184 -67.33493042 60.75349426 C-73.01141168 66.53807181 -76.52177797 70.69600175 -77.4375 78.9375 C-77.18732795 84.79380017 -74.6971913 89.38766826 -70.5 93.375 C-66.87633159 95.73038447 -64.13280602 97.29617255 -59.75 97.375 C-59.04359375 97.40335937 -58.3371875 97.43171875 -57.609375 97.4609375 C-50.64445628 96.23060755 -45.64259161 92.19146292 -40.99609375 87.10546875 C-39.91524733 85.97409918 -38.83385109 84.84325467 -37.75195312 83.71289062 C-36.08318051 81.9444898 -34.4215548 80.17027563 -32.76977539 78.38598633 C-31.15443279 76.64984378 -29.5150635 74.93946395 -27.87109375 73.23046875 C-27.3854747 72.6910112 -26.89985565 72.15155365 -26.39952087 71.5957489 C-24.96264648 70.11791992 -24.96264648 70.11791992 -22 68 C-18.24817477 68.11313165 -15.37729602 68.88163262 -11.8125 70 C-6.58681257 71.37067211 -1.37863471 71.66438733 4 72 C4.68952942 74.26393127 4.68952942 74.26393127 5 77 C3.82084656 78.92759705 3.82084656 78.92759705 1.9675293 80.77709961 C1.27898361 81.47810287 0.59043793 82.17910614 -0.11897278 82.90135193 C-0.88021957 83.64417923 -1.64146637 84.38700653 -2.42578125 85.15234375 C-3.59091499 86.31897301 -3.59091499 86.31897301 -4.77958679 87.50917053 C-6.43125845 89.15615502 -8.09033519 90.79574115 -9.75610352 92.4284668 C-12.28162284 94.90719491 -14.77985866 97.41104614 -17.27539062 99.91992188 C-18.88644946 101.51981306 -20.4990343 103.11816934 -22.11328125 104.71484375 C-23.22175163 105.82604836 -23.22175163 105.82604836 -24.35261536 106.95970154 C-35.25763295 117.57726345 -46.15940795 122.53229557 -61.265625 122.41967773 C-73.00065791 122.04077457 -82.21752399 117.30651278 -90.78125 109.34375 C-99.98274327 99.39111442 -102.60205741 87.58469835 -102.3125 74.4921875 C-101.57580113 59.77662765 -91.92301261 49.45644696 -81.9921875 39.5234375 C-81.02031556 38.54444059 -80.04873329 37.56515605 -79.0774231 36.58560181 C-77.05022869 34.54504883 -75.01729911 32.51042483 -72.98046875 30.47949219 C-70.3985022 27.90341011 -67.83523512 25.30957354 -65.27651787 22.71042442 C-63.27755766 20.68534495 -61.26695461 18.67212852 -59.25308609 16.66188431 C-57.85009993 15.25642983 -56.45815914 13.8399762 -55.06661987 12.42318726 C-40.24439642 -2.24241865 -19.74868783 -10.47034836 0 0 Z " fill="#FCFCFC" transform="translate(137,99)"/>
</svg>
